<svg width="29" height="33" viewBox="0 0 29 33" fill="none" xmlns="http://www.w3.org/2000/svg">
<rect x="9.575" y="4.625" width="18.8" height="27.875" rx="2.5" fill="#F9BB69" stroke="black"/>
<path d="M9.9 6.95C9.9 5.84543 10.7954 4.95 11.9 4.95H24.4C25.5046 4.95 26.4 5.84543 26.4 6.95V30.175C26.4 31.2796 25.5046 32.175 24.4 32.175H11.9C10.7954 32.175 9.9 31.2796 9.9 30.175V6.95Z" fill="#F6D76F"/>
<rect x="0.5" y="0.5" width="18.8" height="27.875" rx="2.5" fill="#F72349" stroke="black"/>
<path d="M0.825001 2.825C0.825001 1.72043 1.72043 0.824997 2.825 0.824997H15.325C16.4296 0.824997 17.325 1.72043 17.325 2.825V26.05C17.325 27.1546 16.4296 28.05 15.325 28.05H2.825C1.72043 28.05 0.825001 27.1546 0.825001 26.05V2.825Z" fill="#FA4350"/>
</svg>
